<svg width="40" height="40" viewBox="0 0 666 666" fill="none" xmlns="http://www.w3.org/2000/svg"><g clip-path="url(#clip0_203_24)"><rect width="666" height="666" rx="2" fill="#444444" /><g clip-path="url(#clip1_203_24)"><path fill-rule="evenodd" clip-rule="evenodd" d="M823 -58H-113V721H823V-58ZM633.338 32H353.324L633.338 312.014V32ZM33 52.3381L313 332.338L33 612.338V52.3381ZM53 632.338L333 352.338L613 632.338H53ZM353 332.338L483 462.338L613 332.338L483 202.338L353 332.338ZM313 32.3381H53L175 154.338H435L313 32.3381ZM463 182.338L333 312.338L203 182.338H463ZM503 482.338L633 612.338V352.338L503 482.338Z" fill="#0066FF" /><rect x="-103" y="-40" width="901" height="761" fill="#D9D9D9" /><path fill-rule="evenodd" clip-rule="evenodd" d="M823 -58H-113V721H823V-58ZM633.338 32H353.324L633.338 312.014V32ZM33 52.3381L313 332.338L33 612.338V52.3381ZM53 632.338L333 352.338L613 632.338H53ZM353 332.338L483 462.338L613 332.338L483 202.338L353 332.338ZM313 32.3381H53L175 154.338H435L313 32.3381ZM463 182.338L333 312.338L203 182.338H463ZM503 482.338L633 612.338V352.338L503 482.338Z" fill="#0066FF" /></g></g><defs><clipPath id="clip0_203_24"><rect width="666" height="666" rx="2" fill="white" /></clipPath><clipPath id="clip1_203_24"><rect width="1200" height="1200" fill="white" transform="translate(-218 -225)" /></clipPath></defs></svg>